# Blender v2.79 (sub 0) OBJ File: 'arcade2_p3.blend'
# www.blender.org
mtllib Arcade2_screen.mtl
o Cube.001_Cube.004
v 0.694728 2.783313 0.554760
v 0.694728 3.702927 0.408559
v -0.698587 2.783313 0.554759
v -0.698587 3.702927 0.408558
v -0.559256 2.782581 0.569367
v -0.419924 2.781849 0.584979
v -0.280593 2.781230 0.599154
v -0.141261 2.780809 0.609450
v -0.001930 2.780652 0.613425
v 0.137402 2.780809 0.609450
v 0.276733 2.781230 0.599154
v 0.416065 2.781849 0.584979
v 0.555396 2.782581 0.569367
v -0.559256 3.706910 0.423166
v -0.419924 3.711128 0.438778
v -0.280593 3.714910 0.452953
v -0.141261 3.717654 0.463249
v -0.001930 3.718720 0.467223
v 0.137402 3.717654 0.463249
v 0.276733 3.714910 0.452953
v 0.416065 3.711128 0.438778
v 0.555396 3.706910 0.423166
vt 0.999918 0.000082
vt 0.900000 1.000000
vt 0.899935 0.000082
vt 0.000082 0.000082
vt 0.100000 1.000000
vt 0.000000 1.000000
vt 0.100065 0.000082
vt 0.200000 1.000000
vt 0.200049 0.000082
vt 0.300000 1.000000
vt 0.300033 0.000082
vt 0.400000 1.000000
vt 0.400016 0.000082
vt 0.500000 1.000000
vt 0.599984 0.000082
vt 0.500000 0.000082
vt 0.699967 0.000082
vt 0.600000 1.000000
vt 0.799951 0.000082
vt 0.700000 1.000000
vt 0.800000 1.000000
vt 1.000000 1.000000
vn 0.1027 0.1555 0.9825
vn 0.1108 0.1556 0.9816
vn 0.1060 0.1550 0.9822
vn -0.1027 0.1555 0.9825
vn -0.1108 0.1556 0.9816
vn -0.1074 0.1561 0.9819
vn -0.1060 0.1550 0.9822
vn -0.1091 0.1548 0.9819
vn -0.1044 0.1542 0.9825
vn -0.0897 0.1544 0.9839
vn -0.0858 0.1539 0.9843
vn -0.0523 0.1542 0.9866
vn -0.0501 0.1539 0.9868
vn 0.0000 0.1541 0.9880
vn 0.0501 0.1539 0.9868
vn 0.0000 0.1540 0.9881
vn 0.0858 0.1539 0.9843
vn 0.0523 0.1542 0.9866
vn 0.1044 0.1542 0.9825
vn 0.0897 0.1544 0.9839
vn 0.1091 0.1548 0.9819
vn 0.1074 0.1561 0.9819
usemtl Material.001
s 1
f 1/1/1 22/2/2 13/3/3
f 3/4/4 14/5/5 4/6/6
f 5/7/7 15/8/8 14/5/5
f 6/9/9 16/10/10 15/8/8
f 7/11/11 17/12/12 16/10/10
f 8/13/13 18/14/14 17/12/12
f 10/15/15 18/14/14 9/16/16
f 11/17/17 19/18/18 10/15/15
f 12/19/19 20/20/20 11/17/17
f 13/3/3 21/21/21 12/19/19
f 1/1/1 2/22/22 22/2/2
f 3/4/4 5/7/7 14/5/5
f 5/7/7 6/9/9 15/8/8
f 6/9/9 7/11/11 16/10/10
f 7/11/11 8/13/13 17/12/12
f 8/13/13 9/16/16 18/14/14
f 10/15/15 19/18/18 18/14/14
f 11/17/17 20/20/20 19/18/18
f 12/19/19 21/21/21 20/20/20
f 13/3/3 22/2/2 21/21/21
